<svg xmlns="http://www.w3.org/2000/svg" version="1.1" xmlns:xlink="http://www.w3.org/1999/xlink" xmlns:svgjs="http://svgjs.dev/svgjs" viewBox="0 0 800 800" opacity="0.38"><defs><symbol id="bbburst-shape-1" viewBox="0 0 194 167"><path d="m97 0 96.129 166.5H.871L97 0Z"></path></symbol><symbol id="bbburst-shape-4" viewBox="0 0 149 143"><path d="M71.647 2.781c.898-2.764 4.808-2.764 5.706 0l15.445 47.534a3 3 0 0 0 2.853 2.073h49.98c2.906 0 4.115 3.719 1.764 5.427L106.96 87.193a2.999 2.999 0 0 0-1.09 3.354l15.445 47.534c.898 2.764-2.266 5.062-4.617 3.354l-40.435-29.378a3 3 0 0 0-3.526 0l-40.435 29.378c-2.351 1.708-5.515-.59-4.617-3.354L43.13 90.547a3 3 0 0 0-1.09-3.354L1.605 57.815c-2.35-1.708-1.142-5.427 1.764-5.427h49.98a3 3 0 0 0 2.853-2.073L71.647 2.781Z"></path></symbol><symbol id="bbburst-shape-6" viewBox="0 0 133 116"><path d="M59.7487 10.2513c-13.6683-13.66839-35.8291-13.66839-49.4974 0-13.66839 13.6683-13.66839 35.8291 0 49.4974l49.4974-49.4974ZM66.5 66.5 41.7513 91.2487 66.5 115.997l24.7487-24.7483L66.5 66.5Zm56.249-6.7513c13.668-13.6683 13.668-35.8291 0-49.4974-13.669-13.66839-35.8294-13.66839-49.4977 0l49.4977 49.4974Zm-112.4977 0 31.5 31.5 49.4974-49.4974-31.5-31.5-49.4974 49.4974Zm80.9974 31.5 31.5003-31.5-49.4977-49.4974-31.5 31.5 49.4974 49.4974Z"></path></symbol><symbol id="bbburst-shape-8" viewBox="0 0 87 168"><path d="m12 12 31.2546 18.0749c16.4102 9.4902 20.014 31.6325 7.4603 45.8369L36.3296 92.1884c-12.5684 14.2206-8.9394 36.3916 7.5068 45.8636L75 156" stroke-width="14" stroke-linecap="round" stroke-linejoin="round"></path></symbol><symbol id="bbburst-shape-9" viewBox="0 0 182 172"><path d="M13.5809 69.845 91 13.5967l77.419 56.2483-29.571 91.012H43.1524L13.5809 69.845Z" stroke-width="22"></path></symbol><symbol id="bbburst-shape-10" viewBox="0 0 145 145"><circle cx="72.5" cy="72.5" r="61.5" fill="none" stroke-width="22"></circle></symbol><symbol id="bbburst-shape-11" viewBox="0 0 194 167"><path d="M10.398 161 97 11l86.603 150H10.397Z" stroke-width="11"></path></symbol><symbol id="bbburst-shape-12" viewBox="0 0 170 151"><path d="M69.3728 54.2122 85 10.0031l15.627 44.2091c1.413 3.9958 5.19 6.6672 9.428 6.6673h49.312l-39.149 26.1447c-3.803 2.5401-5.399 7.3367-3.875 11.6488l15.179 42.94-40.9683-27.36c-3.3621-2.245-7.7453-2.245-11.1074 0l-40.9682 27.36 15.1785-42.94c1.5243-4.3121-.0712-9.1087-3.8746-11.6488L10.6333 60.8795h49.3112c4.2381-.0001 8.0159-2.6715 9.4283-6.6673Z" stroke-width="12"></path></symbol><symbol id="bbburst-shape-14" viewBox="0 0 185 109"><path d="M168 16.5C168 58.1975 134.197 92 92.5 92 50.8025 92 17 58.1975 17 16.5" stroke-width="33" stroke-linecap="round"></path></symbol></defs><use xlink:href="#bbburst-shape-4" width="45.52750555895313" opacity="-0.03763126941795569" transform="matrix(0.9133242541848643,0.4072331110281449,-0.4072331110281449,0.9133242541848643,231.4513336148538,-323.1790240799925)" fill="#00a19d"></use><use xlink:href="#bbburst-shape-12" width="45.85099595903379" opacity="0.1773275256346134" transform="matrix(0.9650684116457925,-0.2619980168693405,0.2619980168693405,0.9650684116457925,516.5006881527064,298.79643757847884)" fill="none" stroke="#ffa6d5"></use><use xlink:href="#bbburst-shape-11" width="30.06599941268867" opacity="0.09729437518253226" transform="matrix(0.7516164868321967,0.6596003765326595,-0.6596003765326595,0.7516164868321967,1016.9558381955517,269.1485778244239)" fill="none" stroke="#00a19d"></use><use xlink:href="#bbburst-shape-12" width="49.71859664458583" opacity="0.5093816374712394" transform="matrix(0.7333225571590866,0.6798808918933215,-0.6798808918933215,0.7333225571590866,815.868128754624,-60.20205745198783)" fill="none" stroke="#ffa6d5"></use><use xlink:href="#bbburst-shape-8" width="34.88435654990453" opacity="0.7494121731757517" transform="matrix(0.930399464509243,-0.3665471817391505,0.3665471817391505,0.930399464509243,330.7162725388837,97.17594306250925)" fill="none" stroke="#ffa6d5"></use><use xlink:href="#bbburst-shape-6" width="35.24503642162476" opacity="0.5403144047405943" transform="matrix(0.7071348035263193,-0.7070787577362184,0.7070787577362184,0.7071348035263193,-55.4166760513005,260.5677992262236)" fill="#ffa6d5"></use><use xlink:href="#bbburst-shape-11" width="41.35366856673283" opacity="0.3483363946636695" transform="matrix(0.9247891629444074,0.3804799654391572,-0.3804799654391572,0.9247891629444074,363.50633514599656,260.8352973386965)" fill="none" stroke="#00a19d"></use><use xlink:href="#bbburst-shape-6" width="43.90005530196369" opacity="0.6999536503495454" transform="matrix(0.7907229861154343,-0.6121741249258177,0.6121741249258177,0.7907229861154343,94.11059712168611,-30.61743516510154)" fill="#00a19d"></use><use xlink:href="#bbburst-shape-8" width="28.67200848123298" opacity="0.8833046343628759" transform="matrix(0.9456350730103017,0.3252296245620952,-0.3252296245620952,0.9456350730103017,524.7333301937392,-34.78556151325364)" fill="none" stroke="#ffa6d5"></use><use xlink:href="#bbburst-shape-12" width="34.4495863694459" opacity="0.1997517422709293" transform="matrix(0.8018991140926209,-0.5974594637441688,0.5974594637441688,0.8018991140926209,189.04511901718877,-268.18687520547235)" fill="none" stroke="#2c2891"></use><use xlink:href="#bbburst-shape-9" width="35.28783184123656" opacity="0.47247552376958046" transform="matrix(0.7518005417113889,0.6593905864375547,-0.6593905864375547,0.7518005417113889,563.0383782736624,-133.1610270785617)" fill="none" stroke="#ffa6d5"></use><use xlink:href="#bbburst-shape-11" width="34.501410340547615" opacity="0.4214516985993969" transform="matrix(0.991973079900524,0.1264492338951431,-0.1264492338951431,0.991973079900524,666.8186618786416,116.14734690588142)" fill="none" stroke="#ffa6d5"></use><use xlink:href="#bbburst-shape-9" width="50.15109102447623" opacity="0.2683838600787154" transform="matrix(0.7781578652306457,0.6280687357126481,-0.6280687357126481,0.7781578652306457,357.0967558665826,-108.5455380340822)" fill="none" stroke="#ffbd9b"></use><use xlink:href="#bbburst-shape-6" width="29.65476229150715" opacity="0.7219315095828349" transform="matrix(0.95850898265724,-0.2850623268083363,0.2850623268083363,0.95850898265724,339.6849017439512,-84.26857583461498)" fill="#2c2891"></use><use xlink:href="#bbburst-shape-11" width="53.75612079182976" opacity="-0.05075684025628724" transform="matrix(0.8980219289082036,0.439950696328565,-0.439950696328565,0.8980219289082036,884.3975573569738,-308.09074531634997)" fill="none" stroke="#ffa6d5"></use><use xlink:href="#bbburst-shape-11" width="32.35583573050312" opacity="0.7294885038806548" transform="matrix(0.9478184292802034,-0.31881064147359933,0.31881064147359933,0.9478184292802034,287.4399658517767,143.50027880157734)" fill="none" stroke="#2c2891"></use><use xlink:href="#bbburst-shape-6" width="34.99999331402363" opacity="0.3762013403515001" transform="matrix(0.9881989522768866,-0.15317581636427993,0.15317581636427993,0.9881989522768866,482.01108620474605,237.64797028536373)" fill="#00a19d"></use><use xlink:href="#bbburst-shape-4" width="35.49022064664598" opacity="0.3687655211238271" transform="matrix(0.8561202445369502,0.5167766702299869,-0.5167766702299869,0.8561202445369502,575.524358940081,-235.19659466750704)" fill="#2c2891"></use><use xlink:href="#bbburst-shape-8" width="37.26185443731312" opacity="0.12111844504320424" transform="matrix(0.8957356871970397,0.4445869753846228,-0.4445869753846228,0.8957356871970397,741.3828275589638,385.46309542352463)" fill="none" stroke="#00a19d"></use><use xlink:href="#bbburst-shape-10" width="26.92586102726457" opacity="0.8708680768568985" transform="matrix(0.9540158565071368,-0.29975614344489104,0.29975614344489104,0.9540158565071368,213.27976249695627,0.8998991543932107)" fill="none" stroke="#ffbd9b"></use><use xlink:href="#bbburst-shape-10" width="39.61451678155191" opacity="0.3738292089401547" transform="matrix(0.99795076207777,-0.0639865334925887,0.0639865334925887,0.99795076207777,101.82623717174197,126.5220040044137)" fill="none" stroke="#ffa6d5"></use><use xlink:href="#bbburst-shape-6" width="33.335486121331996" opacity="0.7187305669906359" transform="matrix(0.9390928627030088,0.34366349125309753,-0.34366349125309753,0.9390928627030088,427.84065166965706,103.42623337305542)" fill="#ffbd9b"></use><use xlink:href="#bbburst-shape-10" width="38.63325914992875" opacity="0.5311672136357952" transform="matrix(0.999979736699478,-0.0063660184136217985,0.0063660184136217985,0.999979736699478,460.4280013500845,194.39531806145555)" fill="none" stroke="#2c2891"></use><use xlink:href="#bbburst-shape-4" width="45.94016394512818" opacity="-0.058024885294985395" transform="matrix(0.8939444665751302,0.4481777445162868,-0.4481777445162868,0.8939444665751302,896.625335745186,367.5761101334964)" fill="#00a19d"></use><use xlink:href="#bbburst-shape-8" width="45.089506890316486" opacity="0.42123691407513897" transform="matrix(0.8435219613549564,0.5370946850527265,-0.5370946850527265,0.8435219613549564,345.80710890138914,-22.482332405613704)" fill="none" stroke="#00a19d"></use><use xlink:href="#bbburst-shape-6" width="48.36764911140658" opacity="0.45131443011400885" transform="matrix(0.8475327920043327,-0.5307430324340966,0.5307430324340966,0.8475327920043327,414.0233521107053,67.09636802222059)" fill="#2c2891"></use><use xlink:href="#bbburst-shape-1" width="33.22205296250529" opacity="0.6749569979504403" transform="matrix(0.933062899721943,0.35971325408230276,-0.35971325408230276,0.933062899721943,398.0785805888994,-45.6334829362865)" fill="#00a19d"></use><use xlink:href="#bbburst-shape-4" width="42.98559508654578" opacity="0.25633568791295114" transform="matrix(0.9812253558025035,0.19286472235805693,-0.19286472235805693,0.9812253558025035,694.5600769890302,-231.33603999143142)" fill="#2c2891"></use><use xlink:href="#bbburst-shape-9" width="29.056315435322418" opacity="0.6298876252742633" transform="matrix(0.8638172671618949,-0.5038052490327543,0.5038052490327543,0.8638172671618949,120.44497962541473,214.80272936560527)" fill="none" stroke="#ffbd9b"></use><use xlink:href="#bbburst-shape-9" width="45.44832488921466" opacity="0.5158422177652107" transform="matrix(0.7650687652404211,-0.6439485883620659,0.6439485883620659,0.7650687652404211,-92.26000564980367,126.71090430124775)" fill="none" stroke="#ffa6d5"></use><use xlink:href="#bbburst-shape-9" width="24.600881948487896" opacity="0.9064847835185518" transform="matrix(0.7572689126371088,-0.6531032031412882,0.6531032031412882,0.7572689126371088,155.35935893656034,138.07068515292076)" fill="none" stroke="#2c2891"></use><use xlink:href="#bbburst-shape-14" width="32.630291859511345" opacity="0.8492537968863313" transform="matrix(0.9027385525999624,0.43018961592503013,-0.43018961592503013,0.9027385525999624,525.052165602189,91.59090183833575)" fill="none" stroke="#2c2891"></use><use xlink:href="#bbburst-shape-10" width="39.909977113135504" opacity="0.1226133375286721" transform="matrix(0.8950730334345357,0.44591957214087213,-0.44591957214087213,0.8950730334345357,204.5222976841153,203.83875701379054)" fill="none" stroke="#ffa6d5"></use><use xlink:href="#bbburst-shape-4" width="35.8775756313573" opacity="0.16724036857524283" transform="matrix(0.9698077425225554,0.24387074966732858,-0.24387074966732858,0.9698077425225554,351.06641143880285,-344.0767959256454)" fill="#00a19d"></use><use xlink:href="#bbburst-shape-9" width="41.465777538068465" opacity="0.4285126705739265" transform="matrix(0.9995457563954397,-0.030137698516445655,0.030137698516445655,0.9995457563954397,296.35712411238,247.74262352392907)" fill="none" stroke="#2c2891"></use><use xlink:href="#bbburst-shape-9" width="35.281560357038074" opacity="0.20067164173414564" transform="matrix(0.9977756297316173,0.06666177850668734,-0.06666177850668734,0.9977756297316173,763.3264289912039,-62.90349724238803)" fill="none" stroke="#ffbd9b"></use><use xlink:href="#bbburst-shape-8" width="35.24777530999889" opacity="0.6183436757724119" transform="matrix(0.9289945402355074,-0.3700934263299177,0.3700934263299177,0.9289945402355074,403.28310444550596,72.01282992894585)" fill="none" stroke="#00a19d"></use><use xlink:href="#bbburst-shape-4" width="43.060176262922866" opacity="0.5693303042676194" transform="matrix(0.821220039461212,0.5706116427022195,-0.5706116427022195,0.821220039461212,653.5536509991275,-129.7092820037929)" fill="#ffa6d5"></use><use xlink:href="#bbburst-shape-8" width="41.392432398189285" opacity="0.2067446505632583" transform="matrix(0.7879513534189354,0.6157374965399361,-0.6157374965399361,0.7879513534189354,547.6001985458689,419.40338380333225)" fill="none" stroke="#2c2891"></use><use xlink:href="#bbburst-shape-9" width="36.060721655938636" opacity="0.7102015843851797" transform="matrix(0.9604015231653987,-0.278619658856984,0.278619658856984,0.9604015231653987,142.66260879277615,42.83176278654912)" fill="none" stroke="#00a19d"></use><use xlink:href="#bbburst-shape-9" width="44.16322746636655" opacity="0.11667796685012288" transform="matrix(0.7878964735191561,-0.6158077191916952,0.6158077191916952,0.7878964735191561,327.5227290697009,-250.15966147897683)" fill="none" stroke="#00a19d"></use><use xlink:href="#bbburst-shape-12" width="33.050278076041906" opacity="0.8169319756074837" transform="matrix(0.981071045852341,-0.1936481422327464,0.1936481422327464,0.981071045852341,387.1580914881973,-5.137899178422515)" fill="none" stroke="#ff5c58"></use><use xlink:href="#bbburst-shape-10" width="47.0842267537612" opacity="0.050170326919328656" transform="matrix(0.8350727270575337,0.5501395645876542,-0.5501395645876542,0.8350727270575337,245.97915074236084,-185.89287008856323)" fill="none" stroke="#00a19d"></use><use xlink:href="#bbburst-shape-10" width="37.824240941967794" opacity="0.5020159429223401" transform="matrix(0.9916959430119285,-0.12860465237961533,0.12860465237961533,0.9916959430119285,164.05322732644822,-145.0592709311975)" fill="none" stroke="#2c2891"></use><use xlink:href="#bbburst-shape-1" width="52.654749169699826" opacity="0.25231338884947774" transform="matrix(0.8895505565628079,0.4568367403337856,-0.4568367403337856,0.8895505565628079,356.64189821136847,-236.3774803705885)" fill="#ffa6d5"></use><use xlink:href="#bbburst-shape-4" width="37.81471802416554" opacity="0.18848858404766877" transform="matrix(0.9974978013605454,-0.07069749840608167,0.07069749840608167,0.9974978013605454,-1.2981553720360068,-86.65725423669465)" fill="#2c2891"></use><use xlink:href="#bbburst-shape-6" width="38.30123382464557" opacity="0.1924942781877067" transform="matrix(0.827521827369019,-0.5614335448010205,0.5614335448010205,0.827521827369019,209.13966400377592,439.7254070684505)" fill="#00a19d"></use><use xlink:href="#bbburst-shape-12" width="34.77574256272425" opacity="0.5587133987484665" transform="matrix(0.9948476321146822,-0.10138140300770153,0.10138140300770153,0.9948476321146822,345.0090174239096,202.31934642567398)" fill="none" stroke="#ff5c58"></use><use xlink:href="#bbburst-shape-10" width="33.73293443961854" opacity="0.2209402092217625" transform="matrix(0.8675103476553322,0.49741913585117,-0.49741913585117,0.8675103476553322,872.074629188092,244.88232788402212)" fill="none" stroke="#ff5c58"></use><use xlink:href="#bbburst-shape-9" width="38.96624549586954" opacity="0.6354584115435116" transform="matrix(0.8677135508630883,-0.49706457694002953,0.49706457694002953,0.8677135508630883,338.1851698190975,5.9816394133309245)" fill="none" stroke="#00a19d"></use><use xlink:href="#bbburst-shape-9" width="38.12012943877959" opacity="0.10311706475811833" transform="matrix(0.9914102991262649,-0.13078845050833068,0.13078845050833068,0.9914102991262649,678.0606583223321,-196.50450545067835)" fill="none" stroke="#00a19d"></use><use xlink:href="#bbburst-shape-10" width="46.062926453692484" opacity="0.24163834728042255" transform="matrix(0.7083934381535294,-0.7058177787368505,0.7058177787368505,0.7083934381535294,-237.80794811661053,170.6746085298538)" fill="none" stroke="#00a19d"></use><use xlink:href="#bbburst-shape-12" width="45.02558186417434" opacity="0.35938651714811665" transform="matrix(0.8934885631493641,-0.44908594669760576,0.44908594669760576,0.8934885631493641,465.1775363593674,-60.924968889542924)" fill="none" stroke="#2c2891"></use><use xlink:href="#bbburst-shape-9" width="30.716351388025405" opacity="0.580543828825657" transform="matrix(0.9086293480126939,0.41760352959479,-0.41760352959479,0.9086293480126939,690.1595504371687,159.80503062246407)" fill="none" stroke="#00a19d"></use><use xlink:href="#bbburst-shape-10" width="55.96576132047736" opacity="-0.06567972272374178" transform="matrix(0.746445789760187,-0.6654462284432083,0.6654462284432083,0.746445789760187,-231.85020703803428,453.3561881071044)" fill="none" stroke="#ffbd9b"></use><use xlink:href="#bbburst-shape-6" width="45.63360298535406" opacity="0.23434703772890397" transform="matrix(0.9113153519221492,0.4117090348182918,-0.4117090348182918,0.9113153519221492,883.4543327997252,84.44640594988266)" fill="#00a19d"></use><use xlink:href="#bbburst-shape-10" width="43.1379809829748" opacity="0.3662485027030926" transform="matrix(0.7213022942154679,-0.6926203869072167,0.6926203869072167,0.7213022942154679,224.9211618420253,-133.42728856263773)" fill="none" stroke="#00a19d"></use><use xlink:href="#bbburst-shape-4" width="38.5269335477141" opacity="0.18129172818119033" transform="matrix(0.9996768664082937,0.02541973186512041,-0.02541973186512041,0.9996768664082937,113.33051193571785,241.91852106022384)" fill="#00a19d"></use><use xlink:href="#bbburst-shape-12" width="36.5040246838426" opacity="0.09244873786043761" transform="matrix(0.9922529343414904,-0.12423411081785062,0.12423411081785062,0.9922529343414904,118.90453082943262,353.58129518748706)" fill="none" stroke="#ffbd9b"></use><use xlink:href="#bbburst-shape-6" width="25.42048485806019" opacity="0.36783346948988804" transform="matrix(0.7498198632351282,0.661642027608626,-0.661642027608626,0.7498198632351282,701.6344245580665,372.31006675038736)" fill="#ffbd9b"></use></svg>