<svg xmlns="http://www.w3.org/2000/svg" version="1.1" xmlns:xlink="http://www.w3.org/1999/xlink" xmlns:svgjs="http://svgjs.dev/svgjs" viewBox="0 0 800 800" opacity="0.48"><defs><symbol id="bbburst-shape-1" viewBox="0 0 194 167"><path d="m97 0 96.129 166.5H.871L97 0Z"></path></symbol><symbol id="bbburst-shape-3" viewBox="0 0 131 127"><path d="m66 0 66 63.5L66 127 0 63.5 66 0Z"></path></symbol><symbol id="bbburst-shape-4" viewBox="0 0 149 143"><path d="M71.647 2.781c.898-2.764 4.808-2.764 5.706 0l15.445 47.534a3 3 0 0 0 2.853 2.073h49.98c2.906 0 4.115 3.719 1.764 5.427L106.96 87.193a2.999 2.999 0 0 0-1.09 3.354l15.445 47.534c.898 2.764-2.266 5.062-4.617 3.354l-40.435-29.378a3 3 0 0 0-3.526 0l-40.435 29.378c-2.351 1.708-5.515-.59-4.617-3.354L43.13 90.547a3 3 0 0 0-1.09-3.354L1.605 57.815c-2.35-1.708-1.142-5.427 1.764-5.427h49.98a3 3 0 0 0 2.853-2.073L71.647 2.781Z"></path></symbol><symbol id="bbburst-shape-5" viewBox="0 0 145 145"><circle cx="72.5" cy="72.5" r="72.5"></circle></symbol><symbol id="bbburst-shape-6" viewBox="0 0 133 116"><path d="M59.7487 10.2513c-13.6683-13.66839-35.8291-13.66839-49.4974 0-13.66839 13.6683-13.66839 35.8291 0 49.4974l49.4974-49.4974ZM66.5 66.5 41.7513 91.2487 66.5 115.997l24.7487-24.7483L66.5 66.5Zm56.249-6.7513c13.668-13.6683 13.668-35.8291 0-49.4974-13.669-13.66839-35.8294-13.66839-49.4977 0l49.4977 49.4974Zm-112.4977 0 31.5 31.5 49.4974-49.4974-31.5-31.5-49.4974 49.4974Zm80.9974 31.5 31.5003-31.5-49.4977-49.4974-31.5 31.5 49.4974 49.4974Z"></path></symbol><symbol id="bbburst-shape-8" viewBox="0 0 87 168"><path d="m12 12 31.2546 18.0749c16.4102 9.4902 20.014 31.6325 7.4603 45.8369L36.3296 92.1884c-12.5684 14.2206-8.9394 36.3916 7.5068 45.8636L75 156" stroke-width="14" stroke-linecap="round" stroke-linejoin="round"></path></symbol><symbol id="bbburst-shape-10" viewBox="0 0 145 145"><circle cx="72.5" cy="72.5" r="61.5" fill="none" stroke-width="22"></circle></symbol><symbol id="bbburst-shape-11" viewBox="0 0 194 167"><path d="M10.398 161 97 11l86.603 150H10.397Z" stroke-width="11"></path></symbol><symbol id="bbburst-shape-13" viewBox="0 0 159 159"><path stroke-width="22" d="M11 11h137v137H11z"></path></symbol><symbol id="bbburst-shape-14" viewBox="0 0 185 109"><path d="M168 16.5C168 58.1975 134.197 92 92.5 92 50.8025 92 17 58.1975 17 16.5" stroke-width="33" stroke-linecap="round"></path></symbol></defs><use xlink:href="#bbburst-shape-14" width="45.26255921477619" opacity="0.3908860259104652" transform="matrix(0.824303361860371,0.5661483618502222,-0.5661483618502222,0.824303361860371,853.7081026282332,-63.50343668977581)" fill="none" stroke="#2fdd92"></use><use xlink:href="#bbburst-shape-6" width="46.65992144611299" opacity="0.11868443924612138" transform="matrix(0.9998988912949186,-0.014219957355509455,0.014219957355509455,0.9998988912949186,559.9403243898109,349.0572164525404)" fill="#2fdd92"></use><use xlink:href="#bbburst-shape-8" width="31.2769304662853" opacity="0.6720533216238912" transform="matrix(0.8397895993652809,0.5429119899190853,-0.5429119899190853,0.8397895993652809,543.0979779816228,190.0027397952108)" fill="none" stroke="#ff5c58"></use><use xlink:href="#bbburst-shape-4" width="27.762761402761434" opacity="0.7661298766583156" transform="matrix(0.9963130010918608,0.08579279605730107,-0.08579279605730107,0.9963130010918608,524.6540963282082,15.293148860444887)" fill="#ffbd9b"></use><use xlink:href="#bbburst-shape-8" width="34.82860846416469" opacity="0.5031788764527407" transform="matrix(0.9879917706151783,-0.15450650859004275,0.15450650859004275,0.9879917706151783,220.04753851313217,-191.98916140625087)" fill="none" stroke="#ff5c58"></use><use xlink:href="#bbburst-shape-13" width="36.56736674276645" opacity="0.14149214201786975" transform="matrix(0.750180060539017,-0.6612336022690293,0.6612336022690293,0.750180060539017,472.15759624610905,-50.74783358106171)" fill="none" stroke="#ffa6d5"></use><use xlink:href="#bbburst-shape-3" width="42.57445916400513" opacity="0.10460450917601138" transform="matrix(0.8915709216634454,-0.4528811010013493,0.4528811010013493,0.8915709216634454,-7.072844511510596,398.8981526042396)" fill="#bccc9a"></use><use xlink:href="#bbburst-shape-8" width="29.174142941303344" opacity="0.7758814182961213" transform="matrix(0.9876783505512734,-0.156497526665171,0.156497526665171,0.9876783505512734,232.89110763232674,-38.097788630715456)" fill="none" stroke="#406343"></use><use xlink:href="#bbburst-shape-6" width="51.76827459631284" opacity="0.5018286104000919" transform="matrix(0.863258541419937,-0.5047620138892417,0.5047620138892417,0.863258541419937,320.04421580710743,-103.80327889883907)" fill="#2fdd92"></use><use xlink:href="#bbburst-shape-14" width="41.550406766547304" opacity="0.5220404367644159" transform="matrix(0.998627864452098,-0.052367817787666276,0.052367817787666276,0.998627864452098,377.0751702039871,-212.56869663742876)" fill="none" stroke="#00a19d"></use><use xlink:href="#bbburst-shape-5" width="35.55589836194645" opacity="0.11892702237631048" transform="matrix(0.7264307423187473,0.6872396791616691,-0.6872396791616691,0.7264307423187473,842.7786639562835,-255.65117121655982)" fill="#ffa6d5"></use><use xlink:href="#bbburst-shape-5" width="47.57525570571536" opacity="0.40933507304942973" transform="matrix(0.9831968583191699,-0.18254845327012234,0.18254845327012234,0.9831968583191699,83.04152245156081,-137.28190145498414)" fill="#ff5c58"></use><use xlink:href="#bbburst-shape-8" width="39.39176437290644" opacity="0.20091007105241143" transform="matrix(0.9320149850604872,-0.3624197395599471,0.3624197395599471,0.9320149850604872,595.9005125969409,50.53440774707275)" fill="none" stroke="#ffbd9b"></use><use xlink:href="#bbburst-shape-10" width="57.012354765599035" opacity="-0.04432488637306009" transform="matrix(0.8960117500870063,0.44403034097460087,-0.44403034097460087,0.8960117500870063,886.8887114419637,358.7043344847239)" fill="none" stroke="#bccc9a"></use><use xlink:href="#bbburst-shape-6" width="43.75136322706279" opacity="0.7269816103198713" transform="matrix(0.9609592287651719,-0.2766900082240881,0.2766900082240881,0.9609592287651719,334.3846795308225,125.24224195949728)" fill="#ffbd9b"></use><use xlink:href="#bbburst-shape-14" width="52.7999092490062" opacity="0.2987936619618238" transform="matrix(0.8596478383932702,-0.5108870657452368,0.5108870657452368,0.8596478383932702,-37.64088256359577,304.6432139169877)" fill="none" stroke="#406343"></use><use xlink:href="#bbburst-shape-6" width="28.79409747200822" opacity="0.11268973266349758" transform="matrix(0.8749020641359039,0.48429988454544853,-0.48429988454544853,0.8749020641359039,403.12499547891775,-314.35244009319115)" fill="#2fdd92"></use><use xlink:href="#bbburst-shape-11" width="37.06264215979498" opacity="0.37603449742064166" transform="matrix(0.8173631009611592,-0.5761228698699244,0.5761228698699244,0.8173631009611592,434.28940213390376,64.63234562146022)" fill="none" stroke="#2fdd92"></use><use xlink:href="#bbburst-shape-5" width="36.33631700904845" opacity="0.5279369207391706" transform="matrix(0.8294821212884439,-0.5585332671048551,0.5585332671048551,0.8294821212884439,4.613655959215237,221.55839655268812)" fill="#ffbd9b"></use><use xlink:href="#bbburst-shape-6" width="34.91886891126299" opacity="0.7107407129978447" transform="matrix(0.9910479858364213,-0.1335061413178151,0.1335061413178151,0.9910479858364213,207.90707947010083,52.906491111463595)" fill="#00a19d"></use><use xlink:href="#bbburst-shape-5" width="36.30777644989332" opacity="0.6018193284092446" transform="matrix(0.9991347318328052,0.04159071585568614,-0.04159071585568614,0.9991347318328052,560.1759432167687,76.83235765462643)" fill="#406343"></use><use xlink:href="#bbburst-shape-11" width="30.196583681932186" opacity="0.8941755920335351" transform="matrix(0.9604374288366376,0.278495862248739,-0.278495862248739,0.9604374288366376,450.81711218451386,22.83818968770163)" fill="none" stroke="#00a19d"></use><use xlink:href="#bbburst-shape-5" width="40.07057376948926" opacity="0.7053066738409582" transform="matrix(0.7601977328602442,0.6496917784258508,-0.6496917784258508,0.7601977328602442,755.6370716989898,10.330675330334316)" fill="#2c2891"></use><use xlink:href="#bbburst-shape-13" width="37.30217979106133" opacity="0.572677265665605" transform="matrix(0.77149492302254,0.6362354782236251,-0.6362354782236251,0.77149492302254,452.63699340123105,36.71950189585169)" fill="none" stroke="#ffa6d5"></use><use xlink:href="#bbburst-shape-14" width="49.01530555521867" opacity="0.3364972230051497" transform="matrix(0.7470785440934907,0.6647357737892179,-0.6647357737892179,0.7470785440934907,374.0738134173817,204.77435635999586)" fill="none" stroke="#2fdd92"></use><use xlink:href="#bbburst-shape-8" width="48.54107156691156" opacity="0.35848298409851054" transform="matrix(0.9625483286863327,-0.2711101527850769,0.2711101527850769,0.9625483286863327,360.1118309111148,295.2189438393596)" fill="none" stroke="#ffa6d5"></use><use xlink:href="#bbburst-shape-5" width="36.984043435208946" opacity="0.6103103128094258" transform="matrix(0.9997117976734756,0.02400669890817518,-0.02400669890817518,0.9997117976734756,258.1825940321163,-114.69634142282541)" fill="#2fdd92"></use><use xlink:href="#bbburst-shape-1" width="35.192666401009355" opacity="0.1451953558732737" transform="matrix(0.9710894974219616,-0.23871570538354223,0.23871570538354223,0.9710894974219616,-70.59304605424924,-124.83068224279361)" fill="#406343"></use><use xlink:href="#bbburst-shape-3" width="42.32993518551691" opacity="0.5784089949593954" transform="matrix(0.9934483966924589,-0.1142815956713188,0.1142815956713188,0.9934483966924589,521.0452640013442,-20.805769154307086)" fill="#00a19d"></use><use xlink:href="#bbburst-shape-6" width="42.62773992263955" opacity="-0.049935969560475746" transform="matrix(0.9648064862443272,-0.2629609174399778,0.2629609174399778,0.9648064862443272,-58.636062494685916,-315.6002329537105)" fill="#2c2891"></use><use xlink:href="#bbburst-shape-4" width="46.099721746476135" opacity="0.1548199580605295" transform="matrix(0.9874360030593952,-0.15801942874876568,0.15801942874876568,0.9874360030593952,9.88448418207048,-219.63700161409116)" fill="#ff5c58"></use><use xlink:href="#bbburst-shape-3" width="26.876798021837605" opacity="0.873608691508395" transform="matrix(0.9922530643850754,-0.12423307216046486,0.12423307216046486,0.9922530643850754,341.7194814621995,-51.88801563443576)" fill="#00a19d"></use><use xlink:href="#bbburst-shape-5" width="44.77392620222683" opacity="0.32793519066249166" transform="matrix(0.9944555590882058,0.10515769585990374,-0.10515769585990374,0.9944555590882058,351.8086536550052,-294.8235814839547)" fill="#ffbd9b"></use><use xlink:href="#bbburst-shape-6" width="46.80111283192516" opacity="0.21612367585887227" transform="matrix(0.9472206112505492,-0.3205824599414881,0.3205824599414881,0.9472206112505492,282.85809023405994,379.7872265884819)" fill="#00a19d"></use><use xlink:href="#bbburst-shape-10" width="34.812790142319564" opacity="0.6932937188068329" transform="matrix(0.7971474678703743,0.603784659019961,-0.603784659019961,0.7971474678703743,678.1917371971488,-57.794868755019365)" fill="none" stroke="#2c2891"></use><use xlink:href="#bbburst-shape-13" width="56.152672175096455" opacity="-0.041778868106158606" transform="matrix(0.8667930928923001,0.49866795978306083,-0.49866795978306083,0.8667930928923001,909.3948181502531,-289.4146339747865)" fill="none" stroke="#00a19d"></use><use xlink:href="#bbburst-shape-4" width="33.33783633532947" opacity="0.8266781597189329" transform="matrix(0.9453042870206806,0.32618982960896054,-0.32618982960896054,0.9453042870206806,501.72886998072886,93.3768199339014)" fill="#406343"></use><use xlink:href="#bbburst-shape-3" width="51.53656562237021" opacity="0.13227415039624857" transform="matrix(0.996861153563156,0.079169694433754,-0.079169694433754,0.996861153563156,754.2458321364139,175.40042201382965)" fill="#2fdd92"></use><use xlink:href="#bbburst-shape-4" width="52.04207395901854" opacity="0.1147428599789746" transform="matrix(0.7905163531173462,-0.6124409322163658,0.6124409322163658,0.7905163531173462,-210.4070011100783,299.1324677913324)" fill="#2c2891"></use><use xlink:href="#bbburst-shape-14" width="52.45811025855437" opacity="0.3279581498592088" transform="matrix(0.9972507382793372,-0.07410104588544603,0.07410104588544603,0.9972507382793372,46.804020380775285,-51.732034693791604)" fill="none" stroke="#ffbd9b"></use><use xlink:href="#bbburst-shape-4" width="45.43456575984098" opacity="0.38389751356135626" transform="matrix(0.7142823360461799,-0.6998576601084053,0.6998576601084053,0.7142823360461799,360.0866046546489,236.106548080827)" fill="#2c2891"></use><use xlink:href="#bbburst-shape-10" width="38.85955813204025" opacity="0.49931813230712907" transform="matrix(0.9999004015221176,0.014113363734707252,-0.014113363734707252,0.9999004015221176,164.51256513747452,39.8915968048899)" fill="none" stroke="#ffbd9b"></use><use xlink:href="#bbburst-shape-13" width="56.251785020768196" opacity="0.24051184929892855" transform="matrix(0.8621180396930437,0.5067074951447074,-0.5067074951447074,0.8621180396930437,817.4390201589445,-203.40121077676065)" fill="none" stroke="#ffa6d5"></use><use xlink:href="#bbburst-shape-14" width="40.622885400794104" opacity="0.48964087345845553" transform="matrix(0.7192890583656427,0.694710911469992,-0.694710911469992,0.7192890583656427,807.769971592346,276.6915942448249)" fill="none" stroke="#ff5c58"></use><use xlink:href="#bbburst-shape-6" width="46.10046580651645" opacity="0.20618939103582778" transform="matrix(0.9258841229515729,-0.37780761091618675,0.37780761091618675,0.9258841229515729,-127.55007505610789,77.30110114559159)" fill="#ffa6d5"></use><use xlink:href="#bbburst-shape-13" width="52.226763860912826" opacity="-0.047882274821765325" transform="matrix(0.9307268140123076,-0.3657151865571068,0.3657151865571068,0.9307268140123076,-105.02899346204826,369.6860048691752)" fill="none" stroke="#ffa6d5"></use><use xlink:href="#bbburst-shape-10" width="32.11053023886354" opacity="0.4558493181169617" transform="matrix(0.9318339382180518,0.3628849839619105,-0.3628849839619105,0.9318339382180518,464.41645667365,257.3081161849917)" fill="none" stroke="#ffa6d5"></use><use xlink:href="#bbburst-shape-3" width="35.590677079115345" opacity="0.2820565358676904" transform="matrix(0.9102096900273724,-0.41414770333816253,0.41414770333816253,0.9102096900273724,26.770320600024093,-217.04361122209048)" fill="#2fdd92"></use><use xlink:href="#bbburst-shape-8" width="30.898815597562546" opacity="0.9196170346980423" transform="matrix(0.8976849029672189,-0.4406379636217638,0.4406379636217638,0.8976849029672189,244.5555298064756,58.01837720615816)" fill="none" stroke="#2c2891"></use><use xlink:href="#bbburst-shape-3" width="46.702095234878485" opacity="0.22404627456138793" transform="matrix(0.9065277398067243,0.42214625067731204,-0.42214625067731204,0.9065277398067243,459.09884279352946,365.2523184387679)" fill="#00a19d"></use><use xlink:href="#bbburst-shape-4" width="39.38578481363467" opacity="0.5719973290123468" transform="matrix(0.8220668343878588,0.5693910078316349,-0.5693910078316349,0.8220668343878588,640.9625787709763,250.33134631029668)" fill="#bccc9a"></use><use xlink:href="#bbburst-shape-11" width="53.66234179760443" opacity="0.2522507301504652" transform="matrix(0.8177975943308209,0.5755059467170797,-0.5755059467170797,0.8177975943308209,846.143128420548,295.25257978656055)" fill="none" stroke="#ffbd9b"></use><use xlink:href="#bbburst-shape-5" width="42.046270811096115" opacity="0.6997696031371852" transform="matrix(0.9742969514660927,0.22526750845134796,-0.22526750845134796,0.9742969514660927,428.52751015625023,-123.1560627593883)" fill="#2c2891"></use><use xlink:href="#bbburst-shape-11" width="38.27169247692275" opacity="0.20392181508843343" transform="matrix(0.9206861883075173,-0.39030365442790177,0.39030365442790177,0.9206861883075173,234.09087319946116,-319.4050937217773)" fill="none" stroke="#bccc9a"></use><use xlink:href="#bbburst-shape-6" width="51.39652402653256" opacity="0.33886962424258726" transform="matrix(0.8448295011950024,0.5350356192914668,-0.5350356192914668,0.8448295011950024,689.4018036596112,-232.89830440692896)" fill="#bccc9a"></use></svg>